<svg width="32" height="32" viewBox="0 0 32 32" fill="none" xmlns="http://www.w3.org/2000/svg">
<g clip-path="url(#clip0_33_170)">
<g clip-path="url(#clip1_33_170)">
<path fill-rule="evenodd" clip-rule="evenodd" d="M0.737429 0.800916C1.21022 0.329676 1.8511 0.0649847 2.51931 0.0649847C3.18751 0.0649847 3.8284 0.329676 4.30119 0.800916L15.9674 12.4435L27.6337 0.800916C27.8645 0.553681 28.1429 0.355382 28.4522 0.217845C28.7615 0.0803086 29.0954 0.0063531 29.434 0.000391624C29.7726 -0.00556985 30.1089 0.0565841 30.4228 0.183146C30.7368 0.309708 31.022 0.498084 31.2615 0.737038C31.5009 0.975992 31.6897 1.26063 31.8165 1.57396C31.9433 1.8873 32.0056 2.22292 31.9996 2.5608C31.9936 2.89868 31.9195 3.23189 31.7817 3.54057C31.6439 3.84925 31.4452 4.12706 31.1975 4.35743L19.5312 16L31.1975 27.6426C31.4452 27.8729 31.6439 28.1508 31.7817 28.4594C31.9195 28.7681 31.9936 29.1013 31.9996 29.4392C32.0056 29.7771 31.9433 30.1127 31.8165 30.426C31.6897 30.7394 31.5009 31.024 31.2615 31.263C31.022 31.5019 30.7368 31.6903 30.4228 31.8169C30.1089 31.9434 29.7726 32.0056 29.434 31.9996C29.0954 31.9936 28.7615 31.9197 28.4522 31.7822C28.1429 31.6446 27.8645 31.4463 27.6337 31.1991L15.9674 19.5565L4.30119 31.1991C3.82319 31.6436 3.19097 31.8856 2.53772 31.8741C1.88447 31.8626 1.2612 31.5985 0.799217 31.1374C0.33723 30.6764 0.0725975 30.0544 0.0610717 29.4024C0.0495459 28.7505 0.292027 28.1196 0.737429 27.6426L12.4037 16L0.737429 4.35743C0.26523 3.88561 0 3.24602 0 2.57917C0 1.91233 0.26523 1.27274 0.737429 0.800916Z" fill="#023E38"/>
</g>
</g>
<defs>
<clipPath id="clip0_33_170">
<rect width="32" height="32" fill="white"/>
</clipPath>
<clipPath id="clip1_33_170">
<rect width="32" height="32" fill="white"/>
</clipPath>
</defs>
</svg>
