<svg width="32" height="32" viewBox="0 0 32 32" fill="none" xmlns="http://www.w3.org/2000/svg">
<path fill-rule="evenodd" clip-rule="evenodd" d="M14.862 9.74777C14.862 10.6432 14.5009 11.5019 13.8581 12.135C13.2153 12.7682 12.3435 13.1239 11.4344 13.1239C10.5254 13.1239 9.65357 12.7682 9.01077 12.135C8.36797 11.5019 8.00686 10.6432 8.00686 9.74777C8.00686 8.85237 8.36797 7.99365 9.01077 7.3605C9.65357 6.72736 10.5254 6.37166 11.4344 6.37166C12.3435 6.37166 13.2153 6.72736 13.8581 7.3605C14.5009 7.99365 14.862 8.85237 14.862 9.74777ZM18.0725 11.4358C17.6914 12.8843 16.8327 14.1671 15.6312 15.0829C14.4298 15.9987 12.9536 16.4955 11.4344 16.4955C9.91528 16.4955 8.43911 15.9987 7.23767 15.0829C6.03622 14.1671 5.17752 12.8843 4.79634 11.4358H1.71608C1.26155 11.4358 0.825643 11.258 0.504244 10.9414C0.182845 10.6248 0.00228503 10.1955 0.00228503 9.74777C0.00228503 9.30007 0.182845 8.87071 0.504244 8.55414C0.825643 8.23757 1.26155 8.05972 1.71608 8.05972H4.79634C5.17752 6.61123 6.03622 5.32842 7.23767 4.41265C8.43911 3.49688 9.91528 3 11.4344 3C12.9536 3 14.4298 3.49688 15.6312 4.41265C16.8327 5.32842 17.6914 6.61123 18.0725 8.05972H30.2862C30.7407 8.05972 31.1766 8.23757 31.498 8.55414C31.8194 8.87071 32 9.30007 32 9.74777C32 10.1955 31.8194 10.6248 31.498 10.9414C31.1766 11.258 30.7407 11.4358 30.2862 11.4358H18.0725ZM1.71608 21.5642H13.9297C14.3101 20.1147 15.1686 18.8308 16.3704 17.9141C17.5722 16.9975 19.049 16.5001 20.569 16.5001C22.0889 16.5001 23.5658 16.9975 24.7676 17.9141C25.9693 18.8308 26.8278 20.1147 27.2082 21.5642H30.2862C30.7407 21.5642 31.1766 21.742 31.498 22.0586C31.8194 22.3752 32 22.8045 32 23.2522C32 23.6999 31.8194 24.1293 31.498 24.4459C31.1766 24.7624 30.7407 24.9403 30.2862 24.9403H27.2082C26.8271 26.3888 25.9683 27.6716 24.7669 28.5873C23.5655 29.5031 22.0893 30 20.5701 30C19.051 30 17.5748 29.5031 16.3733 28.5873C15.1719 27.6716 14.3132 26.3888 13.932 24.9403H1.7138C1.25927 24.9403 0.823358 24.7624 0.501959 24.4459C0.18056 24.1293 0 23.6999 0 23.2522C0 22.8045 0.18056 22.3752 0.501959 22.0586C0.823358 21.742 1.26155 21.5642 1.71608 21.5642ZM20.5656 19.8761C20.1154 19.8761 19.6697 19.9634 19.2539 20.1331C18.838 20.3028 18.4602 20.5515 18.1419 20.865C17.8236 21.1785 17.5711 21.5506 17.3989 21.9602C17.2266 22.3699 17.138 22.8089 17.138 23.2522C17.138 23.6956 17.2266 24.1346 17.3989 24.5442C17.5711 24.9538 17.8236 25.326 18.1419 25.6395C18.4602 25.953 18.838 26.2017 19.2539 26.3713C19.6697 26.541 20.1154 26.6283 20.5656 26.6283C21.4746 26.6283 22.3464 26.2726 22.9892 25.6395C23.632 25.0064 23.9931 24.1476 23.9931 23.2522C23.9931 22.3568 23.632 21.4981 22.9892 20.865C22.3464 20.2318 21.4746 19.8761 20.5656 19.8761Z" fill="#023E38"/>
</svg>
