<svg width="96" height="36" viewBox="0 0 96 36" fill="none" xmlns="http://www.w3.org/2000/svg">
<path d="M0 33.3032C0 32.6806 0.210449 32.172 0.62258 31.7774C1.04348 31.3829 1.60468 31.1899 2.30618 31.1899C3.00768 31.1899 3.54258 31.3829 3.96348 31.7774C4.38438 32.172 4.58606 32.6806 4.58606 33.3032C4.58606 33.9258 4.37561 34.4256 3.96348 34.8027C3.54258 35.1797 2.99015 35.3639 2.30618 35.3639C1.62222 35.3639 1.04348 35.1797 0.62258 34.8027C0.20168 34.4256 0 33.9258 0 33.3032Z" fill="#7B9996"/>
<path d="M15.1261 27.4807C15.1261 26.7967 14.9332 26.2794 14.5474 25.9374C14.1616 25.5954 13.6617 25.42 13.0392 25.42C12.5306 25.42 11.9957 25.534 11.4345 25.7532C10.8733 25.9724 10.3559 26.2794 9.89995 26.6739V35.1972H6.33984V22.6491H9.47905L9.77719 23.9469C10.3822 23.4207 11.0662 23.0261 11.8378 22.7543C12.6095 22.4825 13.3811 22.351 14.1703 22.351C15.4769 22.351 16.5642 22.7543 17.4148 23.5698C18.2653 24.3853 18.695 25.5603 18.695 27.1211V35.1972H15.1349V27.4894L15.1261 27.4807Z" fill="#7B9996"/>
<path d="M21.2033 32.5753C20.5544 31.5845 20.23 30.3568 20.23 28.8837C20.23 27.5771 20.5106 26.4284 21.063 25.4463C21.6154 24.4642 22.4046 23.7014 23.4218 23.1665C24.439 22.6316 25.6052 22.3597 26.9293 22.3597C28.911 22.3597 30.4368 22.9209 31.5066 24.0521C32.5764 25.1833 33.1113 26.7704 33.1113 28.8135C33.1113 29.2257 33.085 29.6466 33.0411 30.0938H23.7375C23.9655 30.9268 24.4214 31.5494 25.0966 31.9615C25.7718 32.3736 26.5961 32.5753 27.5607 32.5753C28.2622 32.5753 28.911 32.4964 29.4985 32.3386C30.086 32.1807 30.7086 31.9264 31.3663 31.5669L32.7167 34.3905C31.1909 35.1446 29.4635 35.5216 27.508 35.5216C26.1489 35.5216 24.9213 35.2761 23.8164 34.7938C22.7115 34.3115 21.8347 33.575 21.1858 32.5841L21.2033 32.5753ZM26.9556 25.2008C26.0524 25.2008 25.3246 25.4288 24.7722 25.876C24.2198 26.3232 23.8602 26.9721 23.6936 27.8051H29.8581C29.7791 26.0689 28.8146 25.2008 26.9644 25.2008H26.9556Z" fill="#7B9996"/>
<path d="M34.7595 31.1899C35.5662 31.6283 36.3554 31.9703 37.1446 32.207C37.9338 32.4438 38.6528 32.5666 39.3017 32.5666C39.8454 32.5666 40.2487 32.4876 40.5293 32.3298C40.8099 32.172 40.9502 31.9177 40.9502 31.5582C40.9502 31.2337 40.7749 30.9794 40.4329 30.8128C40.0909 30.6374 39.5297 30.4445 38.7668 30.2341L38.0302 30.0149C36.864 29.6729 35.9433 29.2081 35.2593 28.6294C34.5754 28.0507 34.2246 27.2264 34.2246 26.1654C34.2246 24.9728 34.6631 24.0346 35.5487 23.3681C36.4343 22.7017 37.6707 22.3597 39.2579 22.3597C41.0555 22.3597 42.7917 22.7017 44.4665 23.3945L43.4143 26.3408C41.8797 25.5866 40.5293 25.2096 39.3631 25.2096C38.8896 25.2096 38.5038 25.271 38.2232 25.4025C37.9338 25.534 37.7935 25.7357 37.7935 26.0163C37.7935 26.3583 37.9776 26.6301 38.3547 26.823C38.7318 27.0159 39.3456 27.2527 40.1961 27.507C40.3452 27.5421 40.5644 27.6035 40.8626 27.6999C42.0288 28.0594 42.9407 28.5154 43.5984 29.0766C44.2561 29.6378 44.5893 30.4445 44.5893 31.5055C44.5893 32.8998 44.1333 33.9082 43.2126 34.5483C42.3006 35.1884 41.0467 35.5041 39.4596 35.5041C37.5567 35.5041 35.6013 35.0657 33.5933 34.2063L34.7683 31.1899H34.7595Z" fill="#7B9996"/>
<path d="M47.5531 30.5499V25.6131H45.168V22.6405H47.6934L48.0617 19.0278H51.1044V22.6405H54.7347V25.6131H51.1044V30.4008C51.1044 31.1725 51.2535 31.6986 51.5604 31.988C51.8673 32.2773 52.4022 32.4176 53.1651 32.4176C53.6737 32.4176 54.2085 32.3387 54.761 32.1721V35.3113C53.9455 35.4429 53.2265 35.5042 52.6039 35.5042C50.9203 35.5042 49.6576 35.0921 48.807 34.2766C47.9652 33.4611 47.5443 32.216 47.5443 30.5411L47.5531 30.5499Z" fill="#7B9996"/>
<path d="M14.381 8.418H10.0141V17.9935H6.48031V8.418H4.09521V5.44539H6.48031V4.95434C6.48031 3.2532 6.9889 1.99927 8.00608 1.20132C9.02325 0.403362 10.5315 0 12.5483 0C13.8899 0 15.3894 0.157837 17.0379 0.464743V3.56011C15.5823 3.16552 14.188 2.9726 12.864 2.9726C11.8468 2.9726 11.119 3.13044 10.6805 3.45489C10.2421 3.77056 10.0141 4.31422 10.0141 5.05957V5.45416H17.9411V18.0022H14.381V8.42676V8.418Z" fill="white"/>
<path d="M21.5008 13.3548V8.41803H19.1157V5.44543H21.6411L22.0094 1.8327H25.0522V5.44543H28.6824V8.41803H25.0522V13.2058C25.0522 13.9774 25.2012 14.5035 25.5081 14.7929C25.815 15.0823 26.3499 15.2226 27.1128 15.2226C27.6214 15.2226 28.1563 15.1437 28.7087 14.9771V18.1163C27.8932 18.2478 27.1742 18.3092 26.5516 18.3092C24.868 18.3092 23.6053 17.897 22.7548 17.0816C21.913 16.2661 21.4921 15.0209 21.4921 13.3461L21.5008 13.3548Z" fill="white"/>
<path d="M30.2699 15.17C29.6824 14.1704 29.3843 13.0129 29.3843 11.6801C29.3843 10.2244 29.7087 9.00559 30.3576 8.03226C31.0065 7.05893 31.8658 6.33112 32.9444 5.85761C34.0229 5.38409 35.2067 5.14734 36.4782 5.14734C38.0303 5.14734 39.5034 5.44548 40.8976 6.05929L39.7402 9.0582C38.609 8.51454 37.5217 8.25147 36.4782 8.25147C35.4347 8.25147 34.6104 8.54084 33.9703 9.11081C33.3302 9.68078 33.0145 10.5489 33.0145 11.7151C33.0145 12.7937 33.339 13.6443 33.9966 14.2668C34.6543 14.8894 35.5575 15.1963 36.7237 15.1963C37.2674 15.1963 37.776 15.1174 38.267 14.9596C38.7581 14.8017 39.3017 14.5737 39.8892 14.2581L41.1695 17.2307C39.7752 17.9497 38.2407 18.3092 36.5571 18.3092C35.119 18.3092 33.8563 18.0374 32.7778 17.485C31.6992 16.9413 30.8662 16.1609 30.2699 15.1612V15.17Z" fill="white"/>
<path d="M51.1833 10.2858C51.1833 9.60184 50.9903 9.08448 50.6045 8.7425C50.2187 8.40052 49.7189 8.22514 49.0963 8.22514C48.5877 8.22514 48.0528 8.33914 47.4916 8.55836C46.9304 8.77757 46.4131 9.08448 45.9571 9.47907V18.0023H42.397V0.315735H45.9571V6.64677C46.5621 6.15572 47.2373 5.77866 47.9739 5.53314C48.7105 5.28761 49.4646 5.15608 50.2362 5.15608C51.5428 5.15608 52.6301 5.55944 53.4807 6.37494C54.3312 7.19043 54.7609 8.36544 54.7609 9.92628V18.0023H51.2008V10.2946L51.1833 10.2858Z" fill="white"/>
<path d="M57.26 15.3803C56.6111 14.3894 56.2866 13.1618 56.2866 11.6886C56.2866 10.3821 56.5672 9.23337 57.1197 8.25127C57.6721 7.26917 58.4613 6.50629 59.4784 5.9714C60.4956 5.4365 61.6619 5.16467 62.9859 5.16467C64.9677 5.16467 66.4934 5.72587 67.5632 6.85704C68.633 7.98821 69.1679 9.57535 69.1679 11.6185C69.1679 12.0306 69.1416 12.4515 69.0978 12.8987H59.7941C60.0221 13.7317 60.4781 14.3543 61.1533 14.7664C61.8285 15.1786 62.6527 15.3803 63.6173 15.3803C64.3188 15.3803 64.9677 15.3013 65.5552 15.1435C66.1427 14.9857 66.7653 14.7314 67.4229 14.3719L68.7733 17.1954C67.2476 17.9495 65.5201 18.3266 63.5647 18.3266C62.2055 18.3266 60.9779 18.081 59.873 17.5988C58.7682 17.1165 57.8913 16.3799 57.2424 15.389L57.26 15.3803ZM63.021 8.00575C62.1178 8.00575 61.39 8.23373 60.8376 8.68094C60.2852 9.12815 59.9256 9.77703 59.759 10.6101H65.9235C65.8446 8.87385 64.88 8.00575 63.0298 8.00575H63.021Z" fill="white"/>
<path d="M71.0712 15.17C70.4837 14.1704 70.1855 13.0129 70.1855 11.6801C70.1855 10.2244 70.51 9.00559 71.1589 8.03226C71.8078 7.05893 72.6671 6.33112 73.7457 5.85761C74.8242 5.38409 76.008 5.14734 77.2795 5.14734C78.8315 5.14734 80.3047 5.44548 81.6989 6.05929L80.5414 9.0582C79.4103 8.51454 78.3229 8.25147 77.2795 8.25147C76.236 8.25147 75.4117 8.54084 74.7716 9.11081C74.1315 9.68078 73.8158 10.5489 73.8158 11.7151C73.8158 12.7937 74.1402 13.6443 74.7979 14.2668C75.4556 14.8894 76.3587 15.1963 77.525 15.1963C78.0686 15.1963 78.5772 15.1174 79.0683 14.9596C79.5593 14.8017 80.103 14.5737 80.6905 14.2581L81.9707 17.2307C80.5765 17.9497 79.042 18.3092 77.3584 18.3092C75.9203 18.3092 74.6576 18.0374 73.579 17.485C72.5005 16.9413 71.6675 16.1609 71.0712 15.1612V15.17Z" fill="white"/>
<path d="M83.2065 0.315735H86.7666V10.014H88.5379L91.5544 5.44545H95.6581L91.5544 11.4082L95.9475 17.9848H91.7473L88.6256 13.0743H86.7579V17.9848H83.1978V0.315735H83.2065Z" fill="white"/>
</svg>
