<svg width="32" height="32" viewBox="0 0 32 32" fill="none" xmlns="http://www.w3.org/2000/svg">
<path fill-rule="evenodd" clip-rule="evenodd" d="M0 4.84091C0 4.35267 0.187301 3.88443 0.520699 3.53919C0.854097 3.19395 1.30628 3 1.77778 3H30.2222C30.6937 3 31.1459 3.19395 31.4793 3.53919C31.8127 3.88443 32 4.35267 32 4.84091C32 5.32915 31.8127 5.79739 31.4793 6.14263C31.1459 6.48787 30.6937 6.68182 30.2222 6.68182H1.77778C1.30628 6.68182 0.854097 6.48787 0.520699 6.14263C0.187301 5.79739 0 5.32915 0 4.84091ZM0 16.5C0 16.0118 0.187301 15.5435 0.520699 15.1983C0.854097 14.853 1.30628 14.6591 1.77778 14.6591H30.2222C30.6937 14.6591 31.1459 14.853 31.4793 15.1983C31.8127 15.5435 32 16.0118 32 16.5C32 16.9882 31.8127 17.4565 31.4793 17.8017C31.1459 18.147 30.6937 18.3409 30.2222 18.3409H1.77778C1.30628 18.3409 0.854097 18.147 0.520699 17.8017C0.187301 17.4565 0 16.9882 0 16.5ZM1.77778 26.3182C1.30628 26.3182 0.854097 26.5121 0.520699 26.8574C0.187301 27.2026 0 27.6709 0 28.1591C0 28.6473 0.187301 29.1156 0.520699 29.4608C0.854097 29.806 1.30628 30 1.77778 30H30.2222C30.6937 30 31.1459 29.806 31.4793 29.4608C31.8127 29.1156 32 28.6473 32 28.1591C32 27.6709 31.8127 27.2026 31.4793 26.8574C31.1459 26.5121 30.6937 26.3182 30.2222 26.3182H1.77778Z" fill="white"/>
</svg>
