<svg width="105" height="21" viewBox="0 0 105 21" fill="none" xmlns="http://www.w3.org/2000/svg">
<path d="M11.73 9.6H6.75V20.52H2.72V9.6H0V6.21H2.72V5.65C2.72 3.71 3.3 2.28 4.46 1.37C5.62 0.459999 7.34 0 9.64 0C11.17 0 12.88 0.179999 14.76 0.529999V4.06C13.1 3.61 11.51 3.39 10 3.39C8.84 3.39 8.01 3.57 7.51 3.94C7.01 4.3 6.75 4.92 6.75 5.77V6.22H15.79V20.53H11.73V9.61V9.6Z" fill="white"/>
<path d="M19.8499 15.22V9.59002H17.1299V6.20002H20.0099L20.4299 2.08002H23.8999V6.20002H28.0399V9.59002H23.8999V15.05C23.8999 15.93 24.0699 16.53 24.4199 16.86C24.7699 17.19 25.3799 17.35 26.2499 17.35C26.8299 17.35 27.4399 17.26 28.0699 17.07V20.65C27.1399 20.8 26.3199 20.87 25.6099 20.87C23.6899 20.87 22.2499 20.4 21.2799 19.47C20.3199 18.54 19.8399 17.12 19.8399 15.21L19.8499 15.22Z" fill="white"/>
<path d="M29.8498 17.3C29.1798 16.16 28.8398 14.84 28.8398 13.32C28.8398 11.66 29.2098 10.27 29.9498 9.16C30.6898 8.05 31.6698 7.22 32.8998 6.68C34.1298 6.14 35.4798 5.87 36.9298 5.87C38.6998 5.87 40.3798 6.21 41.9698 6.91L40.6498 10.33C39.3598 9.71 38.1198 9.41 36.9298 9.41C35.7398 9.41 34.7998 9.74 34.0698 10.39C33.3398 11.04 32.9798 12.03 32.9798 13.36C32.9798 14.59 33.3498 15.56 34.0998 16.27C34.8498 16.98 35.8798 17.33 37.2098 17.33C37.8298 17.33 38.4098 17.24 38.9698 17.06C39.5298 16.88 40.1498 16.62 40.8198 16.26L42.2798 19.65C40.6898 20.47 38.9398 20.88 37.0198 20.88C35.3798 20.88 33.9398 20.57 32.7098 19.94C31.4798 19.32 30.5298 18.43 29.8498 17.29V17.3Z" fill="white"/>
<path d="M53.7002 11.72C53.7002 10.94 53.4802 10.35 53.0402 9.95999C52.6002 9.56999 52.0302 9.36999 51.3202 9.36999C50.7402 9.36999 50.1302 9.49999 49.4902 9.74999C48.8502 9.99999 48.2602 10.35 47.7402 10.8V20.52H43.6802V0.359985H47.7402V7.57999C48.4302 7.01999 49.2002 6.58999 50.0402 6.30999C50.8802 6.02999 51.7402 5.87999 52.6202 5.87999C54.1102 5.87999 55.3502 6.33999 56.3202 7.26999C57.2902 8.19999 57.7802 9.53999 57.7802 11.32V20.53H53.7202V11.74L53.7002 11.72Z" fill="white"/>
<path d="M60.63 17.53C59.89 16.4 59.52 15 59.52 13.32C59.52 11.83 59.84 10.52 60.47 9.40001C61.1 8.28001 62 7.41 63.16 6.8C64.32 6.19 65.65 5.88 67.16 5.88C69.42 5.88 71.16 6.52001 72.38 7.81001C73.6 9.10001 74.21 10.91 74.21 13.24C74.21 13.71 74.18 14.19 74.13 14.7H63.52C63.78 15.65 64.3 16.36 65.07 16.83C65.84 17.3 66.78 17.53 67.88 17.53C68.68 17.53 69.42 17.44 70.09 17.26C70.76 17.08 71.47 16.79 72.22 16.38L73.76 19.6C72.02 20.46 70.05 20.89 67.82 20.89C66.27 20.89 64.87 20.61 63.61 20.06C62.35 19.51 61.35 18.67 60.61 17.54L60.63 17.53ZM67.2 9.12C66.17 9.12 65.34 9.38001 64.71 9.89001C64.08 10.4 63.67 11.14 63.48 12.09H70.51C70.42 10.11 69.32 9.12 67.21 9.12H67.2Z" fill="white"/>
<path d="M76.3801 17.3C75.7101 16.16 75.3701 14.84 75.3701 13.32C75.3701 11.66 75.7401 10.27 76.4801 9.16C77.2201 8.05 78.2001 7.22 79.4301 6.68C80.6601 6.14 82.0101 5.87 83.4601 5.87C85.2301 5.87 86.9101 6.21 88.5001 6.91L87.1801 10.33C85.8901 9.71 84.6501 9.41 83.4601 9.41C82.2701 9.41 81.3301 9.74 80.6001 10.39C79.8701 11.04 79.5101 12.03 79.5101 13.36C79.5101 14.59 79.8801 15.56 80.6301 16.27C81.3801 16.98 82.4101 17.33 83.7401 17.33C84.3601 17.33 84.9401 17.24 85.5001 17.06C86.0601 16.88 86.6801 16.62 87.3501 16.26L88.8101 19.65C87.2201 20.47 85.4701 20.88 83.5501 20.88C81.9101 20.88 80.4701 20.57 79.2401 19.94C78.0101 19.32 77.0601 18.43 76.3801 17.29V17.3Z" fill="white"/>
<path d="M90.22 0.359974H94.28V11.42H96.3L99.74 6.20997H104.42L99.74 13.01L104.75 20.51H99.96L96.4 14.91H94.27V20.51H90.21V0.349976L90.22 0.359974Z" fill="white"/>
</svg>
