<svg width="111" height="111" viewBox="0 0 111 111" fill="none" xmlns="http://www.w3.org/2000/svg">
<g clip-path="url(#clip0_33_81)">
<path d="M102.836 110.98C107.334 110.98 110.98 107.334 110.98 102.837C110.98 98.3388 107.334 94.6926 102.836 94.6926C98.3385 94.6926 94.6924 98.3388 94.6924 102.837C94.6924 107.334 98.3385 110.98 102.836 110.98Z" fill="#023E38"/>
<path d="M73.3148 81.4587C77.8126 81.4587 81.4587 77.8126 81.4587 73.3148C81.4587 68.8171 77.8126 65.1709 73.3148 65.1709C68.8171 65.1709 65.1709 68.8171 65.1709 73.3148C65.1709 77.8126 68.8171 81.4587 73.3148 81.4587Z" fill="#023E38"/>
<path d="M73.1974 111C77.6302 111 81.2238 107.406 81.2238 102.974C81.2238 98.5406 77.6302 94.9471 73.1974 94.9471C68.7645 94.9471 65.1709 98.5406 65.1709 102.974C65.1709 107.406 68.7645 111 73.1974 111Z" fill="#023E38"/>
<path d="M91.1519 95.488C95.2474 93.7916 97.1922 89.0964 95.4958 85.001C93.7994 80.9055 89.1042 78.9607 85.0087 80.6571C80.9133 82.3535 78.9685 87.0487 80.6649 91.1441C82.3612 95.2396 87.0565 97.1844 91.1519 95.488Z" fill="#023E38"/>
<path d="M97.7465 32.5757H78.4047V13.2339H97.7465V32.5757ZM111 10.6889C111 4.7963 106.204 0 100.311 0H75.8793C69.9867 0 65.1904 4.7963 65.1904 10.6889V35.1206C65.1904 41.0132 69.9867 45.8095 75.8793 45.8095H100.311C106.204 45.8095 111 41.0132 111 35.1206V10.6889Z" fill="#023E38"/>
<path d="M13.2339 78.4048H32.5757V97.7466H13.2339V78.4048ZM10.6889 111H35.1206C41.0132 111 45.8095 106.204 45.8095 100.311V75.8794C45.8095 69.9868 41.0132 65.1905 35.1206 65.1905H10.6889C4.7963 65.1905 0 69.9868 0 75.8794V100.311C0 106.204 4.7963 111 10.6889 111Z" fill="#023E38"/>
<path d="M32.5757 32.5757H13.2339V13.2339H32.5757V32.5757ZM45.8291 10.6889C45.8291 4.7963 41.0328 0 35.1402 0H10.6889C4.7963 0 0 4.7963 0 10.6889V35.1206C0 41.0132 4.7963 45.8095 10.6889 45.8095H35.1206C41.0132 45.8095 45.8095 41.0132 45.8095 35.1206V10.6889H45.8291Z" fill="#023E38"/>
<path d="M102.836 81.4587C107.334 81.4587 110.98 77.8126 110.98 73.3148C110.98 68.8171 107.334 65.1709 102.836 65.1709C98.3385 65.1709 94.6924 68.8171 94.6924 73.3148C94.6924 77.8126 98.3385 81.4587 102.836 81.4587Z" fill="#023E38"/>
</g>
<defs>
<clipPath id="clip0_33_81">
<rect width="111" height="111" fill="white"/>
</clipPath>
</defs>
</svg>
